<svg xmlns="http://www.w3.org/2000/svg" viewBox="0 0 257.28 257"><defs><style>.cls-1{fill:#ff7200;}</style></defs><title>Asset 3</title><g id="Layer_2" data-name="Layer 2"><g id="Layer_1-2" data-name="Layer 1"><g id="logo_1" data-name="logo 1"><path class="cls-1" d="M237.59,196.43a129.42,129.42,0,0,1-20.5,25.16A128.52,128.52,0,0,1,20.82,198.65L111,55.69V196.43Z"/><path class="cls-1" d="M103,2.55,3.84,159.77A128.62,128.62,0,0,1,103,2.55Z"/><path class="cls-1" d="M257,128.5a128.7,128.7,0,0,1-4.23,32.83H146V1.2A128.49,128.49,0,0,1,257,128.5Z"/><path class="cls-1" d="M257.28,0V161.33h-4.52A128.72,128.72,0,0,0,217.09,35.41V0Z"/><path class="cls-1" d="M257.28,196.43V257H217.09V221.59a129.42,129.42,0,0,0,20.5-25.16Z"/></g></g></g></svg>